<svg width="22" height="22" viewBox="0 0 22 22" fill="none" xmlns="http://www.w3.org/2000/svg">
<path d="M9.65938 0.626565C9.18594 0.626565 8.7125 0.63594 8.24375 0.650003L8.52969 3.725L5.66563 0.795315C4.19844 0.912503 2.73594 1.10469 1.26875 1.38125L2.87187 2.7125L0.621873 2.68438C2.26719 7.38126 0.945311 11.2438 0.607811 16.3766L5.09375 21.3359C5.5625 21.275 6.02656 21.2234 6.48125 21.1813L7.48907 19.2031L8.36094 20.5531L10.3063 18.9828L10.3438 20.9984C14.2297 20.9891 17.7359 21.425 21.3922 21.3688C20.0703 17.9469 19.9297 14.6375 19.8969 11.5625L18.3359 10.6672L19.8688 9.07813C19.85 8.07969 19.8078 7.10938 19.7 6.17657L17.0094 6.20938L19.3625 4.25469C19.1844 3.52813 18.9406 2.82969 18.6078 2.15938L17.225 1.03907C14.7031 0.781253 12.1813 0.621878 9.65938 0.626565ZM12.4109 2.36094C12.9078 3.5211 13.4 4.68125 13.8969 5.84376C14.2484 5.35157 14.5953 4.85938 14.9469 4.36719C15.6969 5.64219 16.4469 6.91251 17.1969 8.18751L16.4375 8.63282L14.8766 5.97501L12.8844 8.75938L12.1719 8.24844L13.2969 6.67813L12.2703 4.26407L11.1172 6.14375L11.6797 7.20313L10.9063 7.61563L10.0484 5.99844L8.88594 8.72657L8.07969 8.37969L9.60313 4.80782L9.96407 3.96407C10.1891 4.39532 10.4141 4.82188 10.6438 5.24844C11.2297 4.28282 11.8203 3.32141 12.4109 2.36094ZM3.275 5C3.59 5.075 3.90313 5.15938 4.175 5.24844C4.07656 5.525 3.98281 5.80157 3.88438 6.07344C3.61297 5.99844 3.335 5.91407 3.09219 5.85313C3.15734 5.57188 3.215 5.28594 3.275 5ZM5.05156 5.62813C5.34688 5.80625 5.61406 5.96563 5.84844 6.22813L5.21563 6.82813C5.02813 6.65469 4.8125 6.50001 4.61563 6.38751L5.05156 5.62813ZM6.39688 7.14219C6.49531 7.48907 6.49531 7.87813 6.47188 8.19688L5.60469 8.08438C5.60938 7.84532 5.61875 7.61563 5.55781 7.40469L6.39688 7.14219ZM5.40313 8.81563L6.20938 9.14844C6.05469 9.45782 5.97031 9.74376 5.80625 9.98282L5.04219 9.56094C5.16406 9.30782 5.30469 9.05469 5.40313 8.81563ZM4.62969 10.4141L5.45938 10.7C5.38906 10.9531 5.31875 11.225 5.29063 11.4594L4.41875 11.3656C4.47969 11.0141 4.51719 10.7094 4.62969 10.4141ZM14.3703 11.2297C14.7688 11.2766 15.0547 11.3703 15.3875 11.5625L14.9281 12.3125C14.7359 12.1813 14.4875 12.1344 14.2953 12.1016L14.3703 11.2297ZM13.3766 11.3C13.4281 11.5859 13.4938 11.8719 13.5594 12.1578C13.2828 12.2188 13.0109 12.3125 12.7859 12.3969L12.4672 11.5813C12.7813 11.4688 13.1 11.3609 13.3766 11.3ZM11.6 12.0453L12.1156 12.7531C11.8531 12.9406 11.5625 13.1188 11.3281 13.25L10.9109 12.4813C11.15 12.3453 11.4078 12.1859 11.6 12.0453ZM5.34219 12.1719C5.4125 12.3922 5.53906 12.6031 5.66563 12.7391L5.01875 13.3297C4.76094 13.0625 4.57344 12.6969 4.49375 12.3875L5.34219 12.1719ZM16.1375 12.3266C16.3016 12.6266 16.4563 12.9219 16.5453 13.2219L15.7109 13.4844C15.6172 13.2313 15.5094 12.9781 15.3922 12.7906L16.1375 12.3266ZM10.1656 12.8375L10.4891 13.6484C10.1891 13.775 9.88438 13.8734 9.61719 13.9531L9.38282 13.1094C9.65938 13.0344 9.9125 12.9313 10.1656 12.8375ZM6.2375 13.1281C6.48594 13.2078 6.74375 13.2875 6.97344 13.325C6.91719 13.6109 6.87969 13.9016 6.84219 14.1922C6.51406 14.1453 6.1625 14.0375 5.88125 13.925L6.2375 13.1281ZM8.58125 13.2922L8.7125 14.1594C8.375 14.2203 8.08438 14.2344 7.78438 14.2484L7.76563 13.3719C8.04219 13.3625 8.30938 13.3344 8.58125 13.2922ZM16.7609 14.1359C16.8078 14.4359 16.8359 14.7406 16.8641 15.0406L15.9875 15.1109C15.9688 14.8297 15.9453 14.5531 15.8938 14.2766L16.7609 14.1359ZM13.5922 15.5797C14.4781 15.7438 15.6969 16.3391 16.8219 17.1688C17.1688 16.7047 17.4969 16.2125 17.8203 15.7109L19.2313 16.3156C19.0109 16.8922 18.5281 17.5156 17.8906 18.0594C18.6875 18.8188 19.3391 19.6766 19.625 20.5438C18.9781 19.6953 18.1672 19.0531 17.2672 18.5375C16.1703 19.2781 14.7969 19.7516 13.5359 19.4938C14.6094 19.2875 15.4391 18.7156 16.1516 17.9656C15.3781 17.6141 14.5672 17.3141 13.7469 17.0234L13.5922 15.5797Z" fill="#6E4B26"/>
</svg>
