<svg width="20" height="20" viewBox="0 0 20 20" fill="none" xmlns="http://www.w3.org/2000/svg">
<path d="M20 14.92V17.92C20.0011 18.1985 19.9441 18.4742 19.8325 18.7294C19.7209 18.9845 19.5573 19.2136 19.3521 19.4019C19.1469 19.5901 18.9046 19.7335 18.6408 19.8227C18.3769 19.9119 18.0974 19.9451 17.82 19.92C14.7428 19.5856 11.787 18.5341 9.19 16.85C6.77383 15.3147 4.72534 13.2662 3.19 10.85C1.49998 8.24121 0.448245 5.271 0.120002 2.18001C0.0950123 1.90347 0.127877 1.62477 0.216502 1.36163C0.305128 1.09849 0.447573 0.856695 0.634768 0.651626C0.821963 0.446558 1.04981 0.282715 1.30379 0.170527C1.55778 0.05834 1.83234 0.000266879 2.11 5.3996e-06H5.11C5.59531 -0.00477105 6.06579 0.167084 6.43376 0.483538C6.80173 0.799992 7.04208 1.23945 7.11 1.72001C7.23662 2.68007 7.47145 3.62273 7.81 4.53C7.94455 4.88793 7.97366 5.27692 7.89391 5.65088C7.81415 6.02485 7.62886 6.36812 7.36 6.64L6.09 7.91C7.51356 10.4135 9.58646 12.4864 12.09 13.91L13.36 12.64C13.6319 12.3711 13.9752 12.1859 14.3491 12.1061C14.7231 12.0263 15.1121 12.0555 15.47 12.19C16.3773 12.5286 17.3199 12.7634 18.28 12.89C18.7658 12.9585 19.2094 13.2032 19.5265 13.5775C19.8437 13.9518 20.0122 14.4296 20 14.92Z" fill="#FBEEE2"/>
</svg>
